<svg width="19" height="20" viewBox="0 0 19 20" fill="none" xmlns="http://www.w3.org/2000/svg">
<path d="M-10116 -11466C-10116 -11467.1 -10115.1 -11468 -10114 -11468H11754C11755.1 -11468 11756 -11467.1 11756 -11466V2930C11756 2931.1 11755.1 2932 11754 2932H-10114C-10115.1 2932 -10116 2931.1 -10116 2930V-11466Z" fill="#404040"/>
<path d="M-10114 -11467H11754V-11469H-10114V-11467ZM11755 -11466V2930H11757V-11466H11755ZM11754 2931H-10114V2933H11754V2931ZM-10115 2930V-11466H-10117V2930H-10115ZM-10114 2931C-10114.6 2931 -10115 2930.55 -10115 2930H-10117C-10117 2931.66 -10115.7 2933 -10114 2933V2931ZM11755 2930C11755 2930.55 11754.6 2931 11754 2931V2933C11755.7 2933 11757 2931.66 11757 2930H11755ZM11754 -11467C11754.6 -11467 11755 -11466.6 11755 -11466H11757C11757 -11467.7 11755.7 -11469 11754 -11469V-11467ZM-10114 -11469C-10115.7 -11469 -10117 -11467.7 -10117 -11466H-10115C-10115 -11466.6 -10114.6 -11467 -10114 -11467V-11469Z" fill="white" fill-opacity="0.1"/>
<g clip-path="url(#clip0_0_1)">
<rect width="1430" height="800" transform="translate(-892 -122)" fill="white"/>
<g clip-path="url(#clip1_0_1)">
<rect width="1137" height="698" transform="translate(-602 -22)" fill="white"/>
<rect x="-602" y="-22" width="1137" height="60" fill="white"/>
</g>
<rect x="-892" y="-122" width="1430" height="800" fill="#0A0A0A" fill-opacity="0.64"/>
<rect x="-549" y="-46" width="744" height="647" rx="20" fill="white"/>
<path d="M16.7655 1.36747C14.9422 -0.455823 11.9451 -0.455823 10.1218 1.36747L0.131127 11.3331C-0.043709 11.508 -0.043709 11.7827 0.131127 11.9575C0.305963 12.1324 0.580706 12.1324 0.755542 11.9575L10.7462 1.99188C12.2448 0.493288 14.6675 0.493288 16.1411 1.99188C16.8654 2.7162 17.2651 3.66531 17.2651 4.68935C17.2651 5.71339 16.8654 6.6625 16.1411 7.38683L12.8192 10.7087L5.12644 18.4015C4.20231 19.3256 2.72869 19.3256 1.80456 18.4015C1.77958 18.3765 1.75461 18.3515 1.70465 18.2766C0.880425 17.3525 0.930378 15.9538 1.80456 15.0796L9.49735 7.38683L12.7943 4.08992C12.9691 3.91508 13.1689 3.84015 13.3937 3.84015C13.6185 3.84015 13.8433 3.94006 13.9931 4.08992C14.3178 4.41461 14.3178 4.9641 13.9931 5.31377L7.1995 12.1574C7.02466 12.3322 7.02466 12.6069 7.1995 12.7818C7.37434 12.9566 7.64908 12.9566 7.82391 12.7818L14.6425 5.96316C15.3169 5.28879 15.3169 4.16485 14.6425 3.49048C14.3178 3.16578 13.8682 2.99095 13.4187 2.99095C12.9441 2.99095 12.5195 3.16578 12.1948 3.49048L1.20512 14.4802C0.00624418 15.6791 -0.0686857 17.6022 1.03028 18.8511C1.08024 18.926 1.13019 18.976 1.20512 19.0509C1.80456 19.6503 2.62879 20 3.47799 20C4.35217 20 5.15142 19.6753 5.75086 19.0509L6.79988 18.0019L16.7655 8.03622C17.6397 7.16204 18.1392 5.96316 18.1392 4.71433C18.1392 3.44052 17.6397 2.24165 16.7655 1.36747Z" fill="#888888"/>
</g>
<defs>
<clipPath id="clip0_0_1">
<rect width="1430" height="800" fill="white" transform="translate(-892 -122)"/>
</clipPath>
<clipPath id="clip1_0_1">
<rect width="1137" height="698" fill="white" transform="translate(-602 -22)"/>
</clipPath>
</defs>
</svg>
