<svg width="17" height="18" viewBox="0 0 17 18" fill="none" xmlns="http://www.w3.org/2000/svg">
<path d="M-17182 -7364C-17182 -7365.1 -17181.1 -7366 -17180 -7366H4688C4689.11 -7366 4690 -7365.1 4690 -7364V7032C4690 7033.1 4689.11 7034 4688 7034H-17180C-17181.1 7034 -17182 7033.1 -17182 7032V-7364Z" fill="#404040"/>
<path d="M-17180 -7365H4688V-7367H-17180V-7365ZM4689 -7364V7032H4691V-7364H4689ZM4688 7033H-17180V7035H4688V7033ZM-17181 7032V-7364H-17183V7032H-17181ZM-17180 7033C-17180.6 7033 -17181 7032.55 -17181 7032H-17183C-17183 7033.66 -17181.7 7035 -17180 7035V7033ZM4689 7032C4689 7032.55 4688.55 7033 4688 7033V7035C4689.66 7035 4691 7033.66 4691 7032H4689ZM4688 -7365C4688.55 -7365 4689 -7364.55 4689 -7364H4691C4691 -7365.66 4689.66 -7367 4688 -7367V-7365ZM-17180 -7367C-17181.7 -7367 -17183 -7365.66 -17183 -7364H-17181C-17181 -7364.55 -17180.6 -7365 -17180 -7365V-7367Z" fill="white" fill-opacity="0.1"/>
<rect x="-323.5" y="-1030.5" width="783" height="1353" rx="4.5" stroke="#9747FF" stroke-dasharray="10 5"/>
<rect x="-304" y="-344" width="744" height="647" rx="20" fill="white"/>
<path d="M9.88889 7.22222V13.4444M6.33333 7.22222V13.4444M2.77778 3.66667V14.1556C2.77778 15.1512 2.77778 15.6487 2.97154 16.029C3.14199 16.3635 3.41375 16.636 3.74826 16.8064C4.12818 17 4.62577 17 5.61948 17H10.6027C11.5964 17 12.0933 17 12.4732 16.8064C12.8078 16.636 13.0804 16.3635 13.2509 16.029C13.4444 15.6491 13.4444 15.152 13.4444 14.1583V3.66667M2.77778 3.66667H4.55556M2.77778 3.66667H1M4.55556 3.66667H11.6667M4.55556 3.66667C4.55556 2.83833 4.55556 2.42436 4.69088 2.09766C4.87131 1.66205 5.21717 1.31576 5.65278 1.13533C5.97948 1 6.39388 1 7.22222 1H9C9.82834 1 10.2425 1 10.5692 1.13533C11.0048 1.31576 11.3508 1.66205 11.5313 2.09766C11.6666 2.42436 11.6667 2.83833 11.6667 3.66667M11.6667 3.66667H13.4444M13.4444 3.66667H15.2222" stroke="#2676C2" stroke-width="2" stroke-linecap="round" stroke-linejoin="round"/>
</svg>
