<svg width="17" height="18" viewBox="0 0 17 18" fill="none" xmlns="http://www.w3.org/2000/svg">
<g id="Component 89">
<path id="Vector" d="M9.88889 7.22222V13.4444M6.33333 7.22222V13.4444M2.77778 3.66667V14.1556C2.77778 15.1512 2.77778 15.6487 2.97154 16.029C3.14199 16.3635 3.41375 16.636 3.74826 16.8064C4.12818 17 4.62577 17 5.61948 17H10.6027C11.5964 17 12.0933 17 12.4732 16.8064C12.8078 16.636 13.0804 16.3635 13.2509 16.029C13.4444 15.6491 13.4444 15.152 13.4444 14.1583V3.66667M2.77778 3.66667H4.55556M2.77778 3.66667H1M4.55556 3.66667H11.6667M4.55556 3.66667C4.55556 2.83833 4.55556 2.42436 4.69088 2.09766C4.87131 1.66205 5.21717 1.31576 5.65278 1.13533C5.97948 1 6.39388 1 7.22222 1H9C9.82834 1 10.2425 1 10.5692 1.13533C11.0048 1.31576 11.3508 1.66205 11.5313 2.09766C11.6666 2.42436 11.6667 2.83833 11.6667 3.66667M11.6667 3.66667H13.4444M13.4444 3.66667H15.2222" stroke="#2676C2" stroke-width="2" stroke-linecap="round" stroke-linejoin="round"/>
</g>
</svg>
