<svg width="36" height="36" viewBox="0 0 36 36" fill="none" xmlns="http://www.w3.org/2000/svg">
<g id="edit">
<path id="Vector" d="M18.2657 12.6017L8 22.8674V28.0003L13.1329 28.0002L23.3986 17.7345M18.2657 12.6017L21.9468 8.92058L21.949 8.9184C22.4557 8.41168 22.7095 8.15787 23.0021 8.06281C23.2598 7.97906 23.5375 7.97906 23.7952 8.06281C24.0876 8.1578 24.3411 8.41132 24.8471 8.91732L27.0796 11.1499C27.5878 11.658 27.842 11.9122 27.9372 12.2052C28.0209 12.463 28.0209 12.7406 27.9372 12.9983C27.842 13.2911 27.5882 13.5449 27.0808 14.0524L27.0797 14.0534L23.3986 17.7345M18.2657 12.6017L23.3986 17.7345" stroke="#2676C2" stroke-width="2" stroke-linecap="round" stroke-linejoin="round"/>
</g>
</svg>
