<svg width="10" height="12" viewBox="0 0 10 12" fill="none" xmlns="http://www.w3.org/2000/svg">
<g id="Vector">
<path d="M1 4.90103C1 7.63503 3.42543 9.89594 4.49899 10.7628C4.65263 10.8868 4.73037 10.9496 4.845 10.9814C4.93426 11.0062 5.06562 11.0062 5.15488 10.9814C5.26972 10.9495 5.34692 10.8874 5.50114 10.7628C6.5747 9.89602 9 7.63528 9 4.90128C9 3.86663 8.57859 2.87423 7.82844 2.14262C7.07829 1.41101 6.06094 1 5.00007 1C3.9392 1 2.92173 1.41108 2.17158 2.14268C1.42143 2.87429 1 3.86638 1 4.90103Z" stroke="#2676C2" stroke-linecap="round" stroke-linejoin="round"/>
<path d="M3.85716 4.381C3.85716 5.00343 4.36884 5.508 5.00002 5.508C5.63121 5.508 6.14289 5.00343 6.14289 4.381C6.14289 3.75858 5.63121 3.254 5.00002 3.254C4.36884 3.254 3.85716 3.75858 3.85716 4.381Z" stroke="#2676C2" stroke-linecap="round" stroke-linejoin="round"/>
</g>
</svg>
