<svg xmlns="http://www.w3.org/2000/svg" width="24" height="24" viewBox="0 0 24 24" fill="none">
  <mask id="mask0_524_3222" style="mask-type:alpha" maskUnits="userSpaceOnUse" x="0" y="0" width="24" height="24">
    <rect width="24" height="24" fill="#333"/>
  </mask>
  <g mask="url(#mask0_524_3222)">
    <path d="M22.9337 8.13333H8.46706C7.87799 8.13333 7.40039 7.65573 7.40039 7.06667C7.40039 6.4776 7.87799 6 8.46706 6H22.9337C23.5228 6 24.0004 6.4776 24.0004 7.06667C24.0004 7.65573 23.5228 8.13333 22.9337 8.13333Z" fill="white"/>
    <path d="M3 8.13333H1.06667C0.4776 8.13333 0 7.65573 0 7.06667C0 6.4776 0.4776 6 1.06667 6H3C3.58907 6 4.06667 6.4776 4.06667 7.06667C4.06667 7.65573 3.58907 8.13333 3 8.13333Z" fill="white"/>
    <path d="M22.9337 13.4663H8.46706C7.87799 13.4663 7.40039 12.9887 7.40039 12.3997C7.40039 11.8106 7.87799 11.333 8.46706 11.333H22.9337C23.5228 11.333 24.0004 11.8106 24.0004 12.3997C24.0004 12.9887 23.5228 13.4663 22.9337 13.4663Z" fill="white"/>
    <path d="M3 13.4663H1.06667C0.4776 13.4663 0 12.9887 0 12.3997C0 11.8106 0.4776 11.333 1.06667 11.333H3C3.58907 11.333 4.06667 11.8106 4.06667 12.3997C4.06667 12.9887 3.58907 13.4663 3 13.4663Z" fill="white"/>
    <path d="M22.9337 18.8003H8.46706C7.87799 18.8003 7.40039 18.3227 7.40039 17.7337C7.40039 17.1446 7.87799 16.667 8.46706 16.667H22.9337C23.5228 16.667 24.0004 17.1446 24.0004 17.7337C24.0004 18.3227 23.5228 18.8003 22.9337 18.8003Z" fill="white"/>
    <path d="M3 18.8003H1.06667C0.4776 18.8003 0 18.3227 0 17.7337C0 17.1446 0.4776 16.667 1.06667 16.667H3C3.58907 16.667 4.06667 17.1446 4.06667 17.7337C4.06667 18.3227 3.58907 18.8003 3 18.8003Z" fill="white"/>
  </g>
</svg>