<svg width="15" height="15" viewBox="0 0 15 15" fill="none" xmlns="http://www.w3.org/2000/svg">
<g id="Group 1486">
<path id="Vector" d="M5.9375 10.1736H9.0625V9.6875H5.9375V10.1736ZM5.9375 8.22917H9.0625V7.74306H5.9375V8.22917ZM5.09615 11.875C4.89068 11.875 4.71912 11.8001 4.58147 11.6502C4.44382 11.5003 4.375 11.3135 4.375 11.0897V3.91025C4.375 3.68652 4.44382 3.49971 4.58147 3.34983C4.71912 3.19994 4.89068 3.125 5.09615 3.125H8.61607L10.625 5.3125V11.0897C10.625 11.3135 10.5562 11.5003 10.4185 11.6502C10.2809 11.8001 10.1093 11.875 9.90385 11.875H5.09615ZM8.39286 5.55556V3.61111H5.09615C5.02747 3.61111 4.96452 3.64227 4.90728 3.70459C4.85004 3.76692 4.82143 3.83547 4.82143 3.91025V11.0897C4.82143 11.1645 4.85004 11.2331 4.90728 11.2954C4.96452 11.3577 5.02747 11.3889 5.09615 11.3889H9.90385C9.97253 11.3889 10.0355 11.3577 10.0927 11.2954C10.15 11.2331 10.1786 11.1645 10.1786 11.0897V5.55556H8.39286Z" fill="#2676C2"/>
<path id="Vector_2" d="M0 15V10.8534H0.936375V14.0625H4.14166V15H0ZM10.8583 15V14.0625H14.0636V10.8534H15V15H10.8583ZM0 4.14663V0H4.14166V0.9375H0.936375V4.14663H0ZM14.0636 4.14663V0.9375H10.8583V0H15V4.14663H14.0636Z" fill="#2676C2"/>
</g>
</svg>
