<svg width="18" height="18" viewBox="0 0 18 18" fill="none" xmlns="http://www.w3.org/2000/svg">
<path d="M-17182 -7328C-17182 -7329.1 -17181.1 -7330 -17180 -7330H4688C4689.11 -7330 4690 -7329.1 4690 -7328V7068C4690 7069.1 4689.11 7070 4688 7070H-17180C-17181.1 7070 -17182 7069.1 -17182 7068V-7328Z" fill="#404040"/>
<path d="M-17180 -7329H4688V-7331H-17180V-7329ZM4689 -7328V7068H4691V-7328H4689ZM4688 7069H-17180V7071H4688V7069ZM-17181 7068V-7328H-17183V7068H-17181ZM-17180 7069C-17180.6 7069 -17181 7068.55 -17181 7068H-17183C-17183 7069.66 -17181.7 7071 -17180 7071V7069ZM4689 7068C4689 7068.55 4688.55 7069 4688 7069V7071C4689.66 7071 4691 7069.66 4691 7068H4689ZM4688 -7329C4688.55 -7329 4689 -7328.55 4689 -7328H4691C4691 -7329.66 4689.66 -7331 4688 -7331V-7329ZM-17180 -7331C-17181.7 -7331 -17183 -7329.66 -17183 -7328H-17181C-17181 -7328.55 -17180.6 -7329 -17180 -7329V-7331Z" fill="white" fill-opacity="0.1"/>
<rect x="-323.5" y="-994.5" width="783" height="1353" rx="4.5" stroke="#9747FF" stroke-dasharray="10 5"/>
<rect x="-304" y="-308" width="744" height="647" rx="20" fill="white"/>
<path d="M9 4.58605L1 12.5861V16.5861L5 16.586L13 8.58604M9 4.58605L11.8686 1.7174L11.8704 1.7157C12.2652 1.32082 12.463 1.12303 12.691 1.04894C12.8919 0.983686 13.1082 0.983686 13.3091 1.04894C13.5369 1.12297 13.7345 1.32054 14.1288 1.71486L15.8686 3.45466C16.2646 3.85067 16.4627 4.04878 16.5369 4.2771C16.6022 4.47795 16.6021 4.69429 16.5369 4.89514C16.4628 5.1233 16.265 5.3211 15.8695 5.71655L15.8686 5.7174L13 8.58604M9 4.58605L13 8.58604" stroke="#2676C2" stroke-width="2" stroke-linecap="round" stroke-linejoin="round"/>
</svg>
